<svg width="24" height="24" viewBox="0 0 24 24" fill="none" xmlns="http://www.w3.org/2000/svg">
<path d="M12 1.5C12.8234 1.49988 13.617 1.80757 14.2252 2.36263C14.8333 2.9177 15.212 3.68005 15.2868 4.5H20.4C20.628 4.50007 20.8475 4.58669 21.0142 4.74237C21.1808 4.89804 21.2821 5.11116 21.2976 5.33866C21.3132 5.56615 21.2418 5.79107 21.0979 5.96796C20.954 6.14485 20.7483 6.26052 20.5224 6.2916L20.4 6.3H19.7004L18.18 19.476C18.1123 20.0609 17.832 20.6005 17.3923 20.9921C16.9527 21.3837 16.3844 21.6001 15.7956 21.6H8.20441C7.61563 21.6001 7.04736 21.3837 6.60771 20.9921C6.16807 20.6005 5.88772 20.0609 5.82001 19.476L4.29841 6.3H3.60001C3.38253 6.29999 3.1724 6.22123 3.0085 6.07828C2.84459 5.93533 2.73799 5.73786 2.70841 5.5224L2.70001 5.4C2.70002 5.18251 2.77878 4.97239 2.92173 4.80848C3.06468 4.64458 3.26215 4.53798 3.47761 4.5084L3.60001 4.5H8.71321C8.78806 3.68005 9.16673 2.9177 9.77486 2.36263C10.383 1.80757 11.1767 1.49988 12 1.5V1.5ZM10.2 9C9.90601 9 9.66001 9.186 9.60961 9.4308L9.60001 9.5256V16.8756L9.60961 16.9692C9.66001 17.214 9.90601 17.4 10.2 17.4C10.494 17.4 10.74 17.214 10.7904 16.9692L10.8 16.8744V9.5268L10.7904 9.4308C10.74 9.1872 10.494 9 10.2 9ZM13.8 9C13.506 9 13.26 9.186 13.2096 9.4308L13.2 9.5256V16.8756L13.2096 16.9692C13.26 17.214 13.506 17.4 13.8 17.4C14.094 17.4 14.34 17.214 14.3904 16.9692L14.4 16.8744V9.5268L14.3904 9.4308C14.34 9.1872 14.094 9.0012 13.8 9.0012V9ZM12 3.3C11.274 3.3 10.668 3.816 10.53 4.5H13.47C13.3308 3.816 12.726 3.3 12 3.3V3.3Z" fill="#333333" fill-opacity="0.68"/>
</svg>
